<svg xmlns="http://www.w3.org/2000/svg" viewBox="0 0 18 18" class="login-social__icon">
  <path
    d="M17.64 9.2c0-.637-.057-1.251-.164-1.84H9v3.481h4.844c-.209 1.125-.843 2.078-1.796 2.717v2.258h2.908C16.658 14.075 17.64 11.767 17.64 9.2z"
    fill="#4285F4"
  />
  <path
    d="M9 18c2.43 0 4.467-.806 5.956-2.184l-2.908-2.258c-.806.54-1.837.86-3.048.86-2.344 0-4.328-1.584-5.036-3.711H.957v2.332C2.438 15.983 5.482 18 9 18z"
    fill="#34A853"
  />
  <path
    d="M3.964 10.707A5.41 5.41 0 013.682 9c0-.593.102-1.167.282-1.707V4.961H.957A8.996 8.996 0 000 9c0 1.452.348 2.826.957 4.039l3.007-2.332z"
    fill="#FBBC05"
  />
  <path
    d="M9 3.58c1.321 0 2.508.454 3.44 1.345l2.582-2.58C13.463.891 11.426 0 9 0 5.482 0 2.438 2.017.957 4.961L3.964 7.293C4.672 5.166 6.656 3.58 9 3.58z"
    fill="#EA4335"
  />
</svg>